<svg fill="#9273db" xmlns="http://www.w3.org/2000/svg" viewBox="0 0 128 128" width="32px" height="32px"><path stroke="#9273db" stroke-width="3" d="M 64 6 C 32 6 6 32 6 64 C 6 96 32 122 64 122 C 96 122 122 96 122 64 C 122 32 96 6 64 6 z M 64 12 C 92.7 12 116 35.3 116 64 C 116 92.7 92.7 116 64 116 C 35.3 116 12 92.7 12 64 C 12 35.3 35.3 12 64 12 z M 64 38 C 62.3 38 61 39.3 61 41 L 61 46 C 61 47.7 62.3 49 64 49 C 65.7 49 67 47.7 67 46 L 67 41 C 67 39.3 65.7 38 64 38 z M 64 58 C 62.3 58 61 59.3 61 61 L 61 87 C 61 88.7 62.3 90 64 90 C 65.7 90 67 88.7 67 87 L 67 61 C 67 59.3 65.7 58 64 58 z"/></svg>
