<svg xmlns="http://www.w3.org/2000/svg" viewBox="0 0 609.75 518.97">
  <defs>
    <style>
      .logo {
        fill: url(#a);
      }
    </style>
    <linearGradient id="a" x1="40.34" y1="44.39" x2="518.82" y2="522.87" gradientUnits="userSpaceOnUse">
      <stop offset="0" stop-color="#6fe3ab"/>
      <stop offset="1" stop-color="#005dad"/>
    </linearGradient>
  </defs>
  <title>logo</title>
  <path class="logo" d="M609.6,155.8c-.36-21.93-8.8-40.13-26.73-53.28-14.42-10.57-30.65-14.84-48.36-11.85-6.89,1.16-13.58,3.54-20.52,5.41,0-.42,0-1.25,0-2.08,0-12.91,0-25.82,0-38.73a27.68,27.68,0,0,0-.73-6.06c-2.75-11.87-16.94-16.26-26.6-10.21-5.79,3.62-8.2,9.11-8.2,15.8q0,45.11,0,90.22-.16,84.28-.49,168.57a78.4,78.4,0,0,1-4.32,24.73c-7.77,23-20.88,42.29-40.44,56.74a110.27,110.27,0,0,1-67.47,22.24c-59.69-.16-119.38,0-179.07-.12a171.16,171.16,0,0,1-20.14-1.5c-10.6-1.28-20.32-5.41-29.85-10A108.53,108.53,0,0,1,94.43,369.8c-14-19.88-20.77-42.1-20.7-66.61.22-82.47.09-164.94.05-247.41A29.64,29.64,0,0,0,73,49.26c-2.73-12-17.1-16.36-26.76-10.18-5.59,3.58-8,8.9-8,15.42q0,124.5,0,249a158,158,0,0,0,3.23,32.24A147.23,147.23,0,0,0,127.79,441c17.78,7.45,36.34,11.74,55.7,11.76,60.6.06,121.2,0,181.8.07a155.68,155.68,0,0,0,31.57-3.24,147.15,147.15,0,0,0,106.38-88.8A155.33,155.33,0,0,0,514,312a3.21,3.21,0,0,1,1.49-2.16c8.34-4.67,16.69-9.31,25.11-13.84,13.09-7,26.28-13.86,38.73-22.07,21-13.86,30.43-33.44,30.32-58.19C609.6,195.74,609.93,175.76,609.6,155.8Zm-44.29,84.12c-5.65,5.08-12.06,8.93-18.63,12.53-10.24,5.61-20.6,11-30.92,16.48-.32.17-.65.3-1.44.65,0-4.56,0-8.78,0-13q-.17-49-.37-97.92c0-6.81.82-13.33,4.53-19.19A29.31,29.31,0,0,1,542,125.19c14.88-1.27,27.26,8.85,31.38,22.24a20.31,20.31,0,0,1,.71,5.85q.08,33.25.05,66.5A25.69,25.69,0,0,1,565.31,239.92Zm-14,234.18c1.71,5,.6,9.67-1.72,14-9.33,17.46-23.76,27.76-43.51,30.32a46,46,0,0,1-5.88.43q-112.09,0-224.17,0c-74.88,0-149.75.3-224.63-.18C28.63,518.55,12,506.78,1.89,486.42-.85,480.88-.82,475,3.36,469.72c2.62-3.3,6.3-4.53,10.15-4.92,6.48-.66,12.83,0,18,4.56a58.81,58.81,0,0,1,5.7,6.46c4.52,5.36,10.28,7.53,17.25,7.53q221.32-.09,442.65,0c8.43,0,15.11-2.9,19.65-9.71,6.06-9.09,18.08-10.77,27.07-7.62C547.52,467.36,550,470.28,551.28,474.1ZM258.37,232.47q-.07-106.85,0-213.7c0-6.62,2.17-12.4,8.13-16.09C276.38-3.43,290.67,1.29,293,13a40.19,40.19,0,0,1,.87,7.64q.08,53.08,0,106.17c0,35.92,0,71.84,0,107.76,0,6.53-2.24,12.22-8.12,15.86-9.86,6.11-24.19,1.38-26.46-10.28A40.28,40.28,0,0,1,258.37,232.47ZM171.3,196c0-35.92,0-71.84,0-107.76,0-6.53,2.24-12.22,8.13-15.86,9.88-6.1,24.17-1.38,26.46,10.29a40.05,40.05,0,0,1,.87,7.64q.07,106.85,0,213.7c0,6.62-2.18,12.39-8.14,16.09-9.85,6.11-24.18,1.38-26.46-10.29a40.53,40.53,0,0,1-.87-7.64Q171.25,249.1,171.3,196Zm174.07-34.39q0-54,0-108c0-6.62,2.3-12.38,8.31-16,9.9-5.94,24-1.19,26.28,10.39a39.81,39.81,0,0,1,.88,7.64q.07,106.85,0,213.7c0,6.62-2.17,12.39-8.13,16.09-9.85,6.12-24.18,1.39-26.47-10.27a40.31,40.31,0,0,1-.88-7.64Q345.32,214.59,345.37,161.62Z" transform="translate(0 0)"/>
</svg>
